<svg xmlns="http://www.w3.org/2000/svg" xmlns:xlink="http://www.w3.org/1999/xlink" xmlns:lucid="lucid" width="1180" height="320"><g transform="translate(-300 -260)" lucid:page-tab-id="0_0"><path d="M320 280h1140v280H320z" stroke="#000" stroke-width="2" fill="#3aa6dd"/><use xlink:href="#a" transform="matrix(1,0,0,1,325,285) translate(64.91861979166657 154.5703125)"/><use xlink:href="#b" transform="matrix(1,0,0,1,325,285) translate(384.970703125 154.5703125)"/><use xlink:href="#c" transform="matrix(1,0,0,1,325,285) translate(504.990234375 154.5703125)"/><use xlink:href="#d" transform="matrix(1,0,0,1,325,285) translate(705.0227864583333 154.5703125)"/><defs><path d="M1018 0H770c-49-215-106-420-154-636C567-419 511-214 459 0H211L0-1349h259c35 320 94 617 105 961 37-206 100-393 154-583h195c54 191 118 375 154 583 14-339 68-641 102-961h259" id="e"/><path d="M1113-274C1038-96 884 20 626 20c-352 0-526-209-526-566 0-358 185-556 530-556 358 0 496 251 499 615H395c5 180 68 319 245 319 102 0 186-45 208-129zM857-663c-6-177-128-307-315-247-94 30-141 121-145 247h460" id="f"/><path d="M794-190h353V0H118v-190h395v-1104H223v-190h571v1294" id="g"/><path d="M1109-360C1066-122 902 20 624 20c-347 0-514-209-514-555 0-353 168-567 518-567 270 0 425 136 473 361l-283 14c-16-106-75-183-196-182-75 0-130 31-165 93s-52 152-52 270c0 249 74 374 221 374 120 0 188-82 201-201" id="h"/><path d="M616-1102c361 0 521 202 521 560 0 354-171 562-527 562C259 20 92-192 92-542c0-351 169-560 524-560zm-9 930c200-2 236-165 236-370 0-199-27-367-223-367-195 0-233 146-233 367 0 129 18 223 55 282s92 88 165 88" id="i"/><path d="M934-1102c199 0 220 177 220 381V0H926c-2-260 10-533-4-785-4-72-14-138-83-138-34 0-61 27-81 81s-29 134-29 241V0H501c-2-260 9-533-5-785-4-72-13-138-82-138-46 0-65 47-80 93-21 67-30 155-30 248V0H75c-3-360 6-732-6-1082h209c6 50 3 123 8 175 36-100 83-195 216-195 135 0 166 79 196 196 42-105 93-196 236-196" id="j"/><g id="a"><use transform="matrix(0.032552083333333336,0,0,0.032552083333333336,0,0)" xlink:href="#e"/><use transform="matrix(0.032552083333333336,0,0,0.032552083333333336,40.00651041666667,0)" xlink:href="#f"/><use transform="matrix(0.032552083333333336,0,0,0.032552083333333336,80.01302083333334,0)" xlink:href="#g"/><use transform="matrix(0.032552083333333336,0,0,0.032552083333333336,120.01953125000001,0)" xlink:href="#h"/><use transform="matrix(0.032552083333333336,0,0,0.032552083333333336,160.02604166666669,0)" xlink:href="#i"/><use transform="matrix(0.032552083333333336,0,0,0.032552083333333336,200.03255208333337,0)" xlink:href="#j"/><use transform="matrix(0.032552083333333336,0,0,0.032552083333333336,240.03906250000006,0)" xlink:href="#f"/></g><path d="M711 13c-250 0-386-99-385-349l2-556H161v-190h181l88-282h176v282h385v190H606v530c-10 130 45 186 174 184 91-2 176-11 255-27v186C933-1 833 13 711 13" id="k"/><g id="b"><use transform="matrix(0.032552083333333336,0,0,0.032552083333333336,0,0)" xlink:href="#k"/><use transform="matrix(0.032552083333333336,0,0,0.032552083333333336,40.00651041666667,0)" xlink:href="#i"/></g><path d="M865-312c-44-312-23-686-28-1037h257V0H748L364-1010c44 304 24 668 28 1010H135v-1349h337" id="l"/><path d="M774 0H438L31-1082h297c94 290 200 568 280 872 83-304 194-581 291-872h294" id="m"/><g id="c"><use transform="matrix(0.032552083333333336,0,0,0.032552083333333336,0,0)" xlink:href="#l"/><use transform="matrix(0.032552083333333336,0,0,0.032552083333333336,40.00651041666667,0)" xlink:href="#i"/><use transform="matrix(0.032552083333333336,0,0,0.032552083333333336,80.01302083333334,0)" xlink:href="#m"/><use transform="matrix(0.032552083333333336,0,0,0.032552083333333336,120.01953125000001,0)" xlink:href="#i"/></g><path d="M872-915c-35-112-84-223-220-223-91 0-156 41-204 116-89 137-87 550 2 688 51 79 116 122 209 122 150 0 197-126 240-244l273 52C1094-168 961 20 656 20 239 20 80-262 80-681c0-418 154-689 568-689 289 0 425 167 496 389" id="n"/><path d="M775-193C708-75 621 20 439 20 226 20 106-93 106-306c0-251 170-341 417-346l223-4c4-143-12-264-148-264-103 0-141 58-150 153l-293-14c37-219 194-321 455-321 263 0 418 130 417 390v392c1 84 5 161 89 160 21 0 42-2 62-6v152c-57 15-108 27-180 26-145 0-202-73-217-205h-6zm-256 17c168 0 234-139 227-325-166 4-347-25-347 173 0 94 33 152 120 152" id="o"/><path d="M875-1102c70 0 148 7 206 17v237c-110-17-267-37-359 15-123 69-192 207-192 395V0H250c-10-367 32-789-52-1082h271c19 69 36 149 46 228h4c52-151 151-250 356-248" id="p"/><path d="M609-1161c-125 0-218 36-218 153 0 149 166 161 290 196 235 67 484 129 484 421 0 300-239 408-554 411C302 23 93-114 38-367l285-37c32 128 131 205 296 203 143-2 259-31 259-173 0-164-197-172-333-212-218-64-441-131-441-405 0-276 231-379 511-379 299 0 463 114 513 363l-286 29c-28-115-96-183-233-183" id="q"/><path d="M424-1484c-2 206 5 424-8 618h4c67-145 160-234 348-236 251-3 335 167 336 416V0H824v-621c0-150-23-276-173-270-163 7-227 142-227 312V0H143v-1484h281" id="r"/><path d="M730-426H500l-32-923h294zM468 0v-270h288V0H468" id="s"/><g id="d"><use transform="matrix(0.032552083333333336,0,0,0.032552083333333336,0,0)" xlink:href="#n"/><use transform="matrix(0.032552083333333336,0,0,0.032552083333333336,40.00651041666667,0)" xlink:href="#o"/><use transform="matrix(0.032552083333333336,0,0,0.032552083333333336,80.01302083333334,0)" xlink:href="#p"/><use transform="matrix(0.032552083333333336,0,0,0.032552083333333336,120.01953125000001,0)" xlink:href="#q"/><use transform="matrix(0.032552083333333336,0,0,0.032552083333333336,160.02604166666669,0)" xlink:href="#r"/><use transform="matrix(0.032552083333333336,0,0,0.032552083333333336,200.03255208333337,0)" xlink:href="#o"/><use transform="matrix(0.032552083333333336,0,0,0.032552083333333336,240.03906250000006,0)" xlink:href="#p"/><use transform="matrix(0.032552083333333336,0,0,0.032552083333333336,280.04557291666674,0)" xlink:href="#f"/><use transform="matrix(0.032552083333333336,0,0,0.032552083333333336,320.0520833333334,0)" xlink:href="#s"/></g></defs></g></svg>