<?xml version="1.0" encoding="utf-8"?>
<!-- Svg Vector Icons : http://www.onlinewebfonts.com/icon -->
<!DOCTYPE svg PUBLIC "-//W3C//DTD SVG 1.1//EN" "http://www.w3.org/Graphics/SVG/1.1/DTD/svg11.dtd">
<svg version="1.1" xmlns="http://www.w3.org/2000/svg" xmlns:xlink="http://www.w3.org/1999/xlink" x="0px" y="0px" viewBox="0 0 1000 1000" enable-background="new 0 0 1000 1000" xml:space="preserve">
<metadata> Svg Vector Icons : http://www.onlinewebfonts.com/icon </metadata>
<g><path d="M885,430c-19.3,0-35-16-35-35.1V220c0-116-93.7-210-210-210H360c-116,0-210,94.3-210,210v174.9c0,19.4-15.5,35.1-35,35.1l0,0c-19.3,0-35,15.6-35,35v455.2c0,38.5,31.4,69.8,70.2,69.8h699.7c38.8,0,70.2-31.3,70.2-69.8V465C920,445.7,904.5,430,885,430L885,430L885,430z M465.3,850c-19.5,0-32.3-15.2-28.4-34.5l23.5-117.7C442.1,685.1,430,664,430,640c0-38.7,31.3-70,70-70c38.7,0,70,31.3,70,70c0,24-12.1,45.1-30.4,57.8l23.5,117.7c3.8,19.1-8.6,34.5-28.4,34.5H465.3L465.3,850z M220,430V220.3C220,142.8,282.6,80,359.9,80h280.3C717.4,80,780,142.6,780,220.3V430H220L220,430z"/></g>
</svg>